<svg width="42" height="42" viewBox="0 0 42 42" fill="none" xmlns="http://www.w3.org/2000/svg">
<g id="Frame 48095638">
<rect x="0.75" y="0.75" width="40.5" height="40.5" rx="20.25" fill="#151515"/>
<g id="Group">
<path id="Vector" d="M21.0281 11.3697C26.1597 11.3697 30.3428 15.4278 30.536 20.5083L35.0376 23.2703C35.1721 22.4853 35.2419 21.6792 35.2419 20.8558C35.2419 13.0123 28.8787 6.65387 21.0271 6.65387C13.1754 6.65387 6.81323 13.0133 6.81323 20.8568C6.81323 22.555 7.11152 24.1845 7.65957 25.6928C8.20155 27.189 8.98823 28.567 9.97107 29.7813L14.0127 27.3011L18.6731 24.4411V35.3214H23.2597V24.3533L28.0516 27.2941L32.0921 29.7742C33.074 28.5599 33.8596 27.1809 34.4006 25.6837L30.271 23.1491L25.5247 20.2365L21.0382 17.4836L21.0281 17.4897L16.5517 20.2365L11.7881 23.1592C11.6071 22.4277 11.5111 21.665 11.5111 20.878C11.5111 15.6268 15.7721 11.3707 21.0271 11.3707L21.0281 11.3697ZM21.0281 22.9834L21.0372 22.9884L21.0281 22.9945V22.9824V22.9834Z" fill="#FF0083"/>
</g>
<rect x="0.75" y="0.75" width="40.5" height="40.5" rx="20.25" stroke="#FF0083" stroke-width="0.5"/>
</g>
</svg>
