<svg width="36" height="36" viewBox="0 0 36 36" fill="none" xmlns="http://www.w3.org/2000/svg">
<rect x="1" y="1" width="34" height="34" rx="17" fill="#FF0083"/>
<circle cx="16" cy="16" r="16" transform="matrix(1 0 0 -1 2 34)" fill="white"/>
<path d="M18 2C9.168 2 2 9.168 2 18C2 26.832 9.168 34 18 34C26.832 34 34 26.832 34 18C34 9.168 26.832 2 18 2ZM23.648 19.648L18.848 24.448C18.608 24.688 18.304 24.8 18 24.8C17.696 24.8 17.392 24.688 17.152 24.448L12.352 19.648C11.888 19.184 11.888 18.416 12.352 17.952C12.816 17.488 13.584 17.488 14.048 17.952L16.8 20.704V12.4C16.8 11.744 17.344 11.2 18 11.2C18.656 11.2 19.2 11.744 19.2 12.4V20.704L21.952 17.952C22.416 17.488 23.184 17.488 23.648 17.952C24.112 18.416 24.112 19.184 23.648 19.648Z" fill="#FF0083"/>
<rect x="1" y="1" width="34" height="34" rx="17" stroke="#111316" stroke-width="2"/>
</svg>
