<svg width="83" height="85" viewBox="0 0 83 85" fill="none" xmlns="http://www.w3.org/2000/svg">
<g filter="url(#filter0_d_11_836)">
<circle cx="41.25" cy="40.5" r="40" fill="url(#paint0_linear_11_836)"/>
<circle cx="41.25" cy="40.5" r="40" fill="#FEFEFE"/>
</g>
<path fill-rule="evenodd" clip-rule="evenodd" d="M30.9131 59.6885L37.5465 61.4484V59.147L38.088 58.6055H41.8785V61.3129V63.2082H37.8173L32.8083 61.0422L30.9131 59.6885Z" fill="#CDBDB2"/>
<path fill-rule="evenodd" clip-rule="evenodd" d="M52.5732 59.6885L46.0753 61.4484V59.147L45.5338 58.6055H41.7433V61.3129V63.2082H45.8045L50.8133 61.0422L52.5732 59.6885Z" fill="#CDBDB2"/>
<path fill-rule="evenodd" clip-rule="evenodd" d="M38.0879 54.6926L37.5464 59.1598L38.2231 58.6183H45.2626L46.0748 59.1598L45.5333 54.6926L44.4503 54.0156L39.0354 54.1511L38.0879 54.6926Z" fill="#393939"/>
<path fill-rule="evenodd" clip-rule="evenodd" d="M34.4336 24.5039L37.6826 32.0848L39.1718 54.1509H44.4512L46.0757 32.0848L49.0539 24.5039H34.4336Z" fill="#F89C35"/>
<path fill-rule="evenodd" clip-rule="evenodd" d="M20.2187 41.1432L16.4282 52.1084L25.9044 51.5669H31.9961V46.8289L31.7253 37.082L30.3716 38.165L20.2187 41.1432Z" fill="#F89D35"/>
<path fill-rule="evenodd" clip-rule="evenodd" d="M27.3926 42.375L38.4932 42.6457L37.275 48.3314L31.9953 46.9777L27.3926 42.375Z" fill="#D87C30"/>
<path fill-rule="evenodd" clip-rule="evenodd" d="M27.3926 42.5117L31.9953 46.8437V51.1756L27.3926 42.5117Z" fill="#EA8D3A"/>
<path fill-rule="evenodd" clip-rule="evenodd" d="M31.9971 46.9648L37.412 48.3186L39.172 54.1398L37.9535 54.8165L31.9971 51.2968V46.9648Z" fill="#F89D35"/>
<path fill-rule="evenodd" clip-rule="evenodd" d="M31.9961 51.3008L30.9131 59.694L38.088 54.6852L31.9961 51.3008Z" fill="#EB8F35"/>
<path fill-rule="evenodd" clip-rule="evenodd" d="M38.4948 42.6289L39.1718 54.1358L37.1411 48.247L38.4948 42.6289Z" fill="#EA8E3A"/>
<path fill-rule="evenodd" clip-rule="evenodd" d="M25.769 51.4363L31.9962 51.3008L30.9132 59.694L25.769 51.4363Z" fill="#D87C30"/>
<path fill-rule="evenodd" clip-rule="evenodd" d="M19.4064 63.3504L30.9131 59.6952L25.7689 51.4375L16.4282 52.1142L19.4064 63.3504Z" fill="#EB8F35"/>
<path fill-rule="evenodd" clip-rule="evenodd" d="M37.681 32.082L31.86 36.9555L27.3926 42.3704L38.4932 42.7767L37.681 32.082Z" fill="#E8821E"/>
<path fill-rule="evenodd" clip-rule="evenodd" d="M30.9131 59.6884L38.088 54.6797L37.5465 59.0117V61.4484L32.6731 60.5006L30.9131 59.6884Z" fill="#DFCEC3"/>
<path fill-rule="evenodd" clip-rule="evenodd" d="M52.5732 59.6884L45.5338 54.6797L46.0753 59.0117V61.4484L50.9488 60.5006L52.5732 59.6884Z" fill="#DFCEC3"/>
<path fill-rule="evenodd" clip-rule="evenodd" d="M35.5152 45.0703L37.0044 48.184L31.7247 46.8303L35.5152 45.0703Z" fill="#393939"/>
<path fill-rule="evenodd" clip-rule="evenodd" d="M19.27 18.1367L37.6809 32.0801L34.5674 24.4992L19.27 18.1367Z" fill="#E88F35"/>
<path fill-rule="evenodd" clip-rule="evenodd" d="M19.2702 18.1367L16.8335 25.5823L18.1872 33.7047L17.2396 34.2462L18.5934 35.4646L17.5104 36.4122L18.9995 37.7659L18.0519 38.5782L20.2178 41.2856L30.3709 38.172C35.3346 34.2011 37.7713 32.1705 37.6811 32.0802C37.5908 31.99 31.4539 27.3421 19.2702 18.1367Z" fill="#8E5A30"/>
<path fill-rule="evenodd" clip-rule="evenodd" d="M63.2674 41.1432L67.0579 52.1084L57.5817 51.5669H51.49V46.829L51.7607 37.082L53.1145 38.165L63.2674 41.1432Z" fill="#F89D35"/>
<path fill-rule="evenodd" clip-rule="evenodd" d="M56.0935 42.375L44.9929 42.6457L46.2111 48.3315L51.4908 46.9777L56.0935 42.375Z" fill="#D87C30"/>
<path fill-rule="evenodd" clip-rule="evenodd" d="M56.0935 42.5117L51.4908 46.8437V51.1756L56.0935 42.5117Z" fill="#EA8D3A"/>
<path fill-rule="evenodd" clip-rule="evenodd" d="M51.489 46.9648L46.0741 48.3186L44.3141 54.1398L45.5326 54.8165L51.489 51.2968V46.9648Z" fill="#F89D35"/>
<path fill-rule="evenodd" clip-rule="evenodd" d="M51.49 51.3008L52.573 59.694L45.5336 54.8205L51.49 51.3008Z" fill="#EB8F35"/>
<path fill-rule="evenodd" clip-rule="evenodd" d="M44.9912 42.6289L44.3142 54.1358L46.345 48.247L44.9912 42.6289Z" fill="#EA8E3A"/>
<path fill-rule="evenodd" clip-rule="evenodd" d="M57.717 51.4363L51.4898 51.3008L52.5728 59.694L57.717 51.4363Z" fill="#D87C30"/>
<path fill-rule="evenodd" clip-rule="evenodd" d="M64.0796 63.3504L52.573 59.6952L57.7172 51.4375L67.0579 52.1142L64.0796 63.3504Z" fill="#EB8F35"/>
<path fill-rule="evenodd" clip-rule="evenodd" d="M45.8051 32.082L51.6261 36.9555L56.0935 42.3704L44.9929 42.7767L45.8051 32.082Z" fill="#E8821E"/>
<path fill-rule="evenodd" clip-rule="evenodd" d="M47.9709 45.0703L46.4817 48.184L51.7614 46.8303L47.9709 45.0703Z" fill="#393939"/>
<path fill-rule="evenodd" clip-rule="evenodd" d="M64.2161 18.1367L45.8052 32.0801L48.9187 24.4992L64.2161 18.1367Z" fill="#E88F35"/>
<path fill-rule="evenodd" clip-rule="evenodd" d="M64.2159 18.1367L66.6526 25.5823L65.2988 33.7047L66.2465 34.2462L64.8927 35.4646L65.9757 36.4122L64.4866 37.7659L65.4342 38.5782L63.2682 41.2856L53.1152 38.172C48.1515 34.2011 45.7148 32.1705 45.805 32.0802C45.8953 31.99 52.0322 27.3421 64.2159 18.1367Z" fill="#8E5A30"/>
<defs>
<filter id="filter0_d_11_836" x="0.25" y="0.5" width="82" height="84" filterUnits="userSpaceOnUse" color-interpolation-filters="sRGB">
<feFlood flood-opacity="0" result="BackgroundImageFix"/>
<feColorMatrix in="SourceAlpha" type="matrix" values="0 0 0 0 0 0 0 0 0 0 0 0 0 0 0 0 0 0 127 0" result="hardAlpha"/>
<feOffset dy="3"/>
<feGaussianBlur stdDeviation="0.5"/>
<feComposite in2="hardAlpha" operator="out"/>
<feColorMatrix type="matrix" values="0 0 0 0 1 0 0 0 0 0 0 0 0 0 0.513726 0 0 0 1 0"/>
<feBlend mode="normal" in2="BackgroundImageFix" result="effect1_dropShadow_11_836"/>
<feBlend mode="normal" in="SourceGraphic" in2="effect1_dropShadow_11_836" result="shape"/>
</filter>
<linearGradient id="paint0_linear_11_836" x1="41.25" y1="0.5" x2="41.25" y2="27.8727" gradientUnits="userSpaceOnUse">
<stop stop-color="white" stop-opacity="0.5"/>
<stop offset="1" stop-color="white" stop-opacity="0"/>
</linearGradient>
</defs>
</svg>
