<svg width="139" height="39" viewBox="0 0 139 39" fill="none" xmlns="http://www.w3.org/2000/svg">
<path d="M54.9434 5.35666H48.3551V8.33493C48.4118 8.82738 48.3551 9.32604 48.1914 9.79492C48.0263 10.2638 47.7568 10.693 47.4003 11.0527C47.045 11.4112 46.6129 11.6903 46.1343 11.8726C45.6556 12.0537 45.1403 12.1319 44.6264 12.1034H43.4146V18.2906H47.6787V28.2079C47.6787 32.8136 50.7309 35.6517 55.7206 35.6517C57.0307 35.7125 58.3396 35.4904 59.5489 35.0005V29.1307C58.914 29.2746 58.264 29.3528 57.6115 29.3627C56.0129 29.3627 54.9459 28.8504 54.9459 26.9439V18.2906H59.6459V12.1034H54.9459V5.3579L54.9434 5.35666ZM73.6916 29.4074C72.9295 29.4074 72.1749 29.2548 71.477 28.9571C70.7804 28.6606 70.1556 28.2265 69.6429 27.6844C69.1315 27.1399 68.7447 26.4998 68.5079 25.8039C68.2711 25.108 68.188 24.3712 68.2648 23.6431C68.2648 19.7357 70.9303 17.921 73.6904 17.921C76.4504 17.921 79.1159 19.7357 79.1159 23.6431C79.1159 27.5504 76.4957 29.416 73.6904 29.416V29.4086L73.6916 29.4074ZM73.6916 11.4112C72.0036 11.3641 70.3219 11.6469 68.7523 12.2435C67.1815 12.8402 65.7529 13.737 64.5562 14.8807C63.3595 16.0256 62.4172 17.3926 61.7886 18.8984C61.16 20.4043 60.8565 22.0169 60.898 23.6394C60.8565 25.2643 61.1575 26.8794 61.7861 28.3877C62.4135 29.8961 63.3545 31.2668 64.5512 32.4166C65.7479 33.5653 67.1751 34.4696 68.746 35.0724C70.3169 35.6753 71.9998 35.9655 73.6916 35.9246C75.3847 35.9692 77.0701 35.6815 78.6435 35.0786C80.2169 34.4758 81.6454 33.5715 82.8434 32.4204C84.0401 31.2717 84.9799 29.8998 85.6059 28.3902C86.232 26.8806 86.5318 25.2631 86.4852 23.6394C86.5306 22.0169 86.2307 20.4018 85.6034 18.8947C84.9761 17.3876 84.0351 16.0182 82.8371 14.8732C81.6391 13.7271 80.2106 12.8278 78.6372 12.2311C77.0651 11.6345 75.3821 11.3529 73.6916 11.4038V11.4124V11.4112ZM96.6586 35.2213V21.9114C96.6246 21.3942 96.7014 20.8744 96.8866 20.3882C97.0718 19.9007 97.359 19.4554 97.7319 19.0795C98.1047 18.7037 98.5545 18.4072 99.052 18.2063C99.5509 18.0053 100.086 17.9061 100.627 17.9148C101.161 17.8813 101.697 17.9619 102.196 18.1492C102.695 18.3365 103.145 18.6268 103.515 18.9989C103.884 19.371 104.165 19.8176 104.334 20.3051C104.504 20.7926 104.562 21.3111 104.5 21.8221V35.22H111.766V21.8693C111.737 21.3508 111.82 20.831 112.012 20.3448C112.203 19.8585 112.497 19.4157 112.875 19.0436C113.253 18.6714 113.707 18.3799 114.209 18.1852C114.711 17.9904 115.249 17.8986 115.79 17.9135C116.321 17.885 116.853 17.9694 117.347 18.1591C117.841 18.3489 118.287 18.6404 118.651 19.0126C119.016 19.3847 119.291 19.8288 119.458 20.3138C119.624 20.7988 119.68 21.3136 119.618 21.8209V35.2188H126.739V20.2393C126.739 13.959 122.378 11.4 117.825 11.4C116.358 11.312 114.893 11.6022 113.582 12.2398C112.27 12.8774 111.159 13.84 110.365 15.0283C109.666 13.8313 108.622 12.8526 107.36 12.21C106.098 11.5663 104.668 11.2859 103.244 11.4013C101.894 11.3827 100.559 11.6767 99.3519 12.2597C98.1451 12.8427 97.1033 13.6986 96.316 14.7517V12.0996H89.2918V35.22H96.6599L96.6586 35.2213ZM138.369 12.1009H131.001V35.2213H138.365L138.369 12.1009ZM130.371 5.03787C130.371 6.12821 130.818 7.17513 131.615 7.9504C132.414 8.72567 133.497 9.1685 134.634 9.18215C135.204 9.18711 135.771 9.08291 136.3 8.87576C136.829 8.66985 137.311 8.3647 137.716 7.97893C138.121 7.59439 138.443 7.13543 138.664 6.63182C138.884 6.12696 138.999 5.58614 139 5.03787C138.999 4.49084 138.884 3.94877 138.664 3.44391C138.443 2.93906 138.122 2.48134 137.716 2.09681C137.309 1.71103 136.829 1.40589 136.3 1.19998C135.771 0.994065 135.204 0.889869 134.634 0.89359C133.497 0.907235 132.414 1.34883 131.615 2.12534C130.818 2.90061 130.37 3.94753 130.371 5.03787Z" fill="#FF0083"/>
<path d="M17.709 8.69713C24.102 8.69713 29.3134 13.6799 29.554 19.9181L35.1622 23.3094C35.3298 22.3456 35.4167 21.3557 35.4167 20.3448C35.4167 10.7141 27.4893 2.9068 17.7077 2.9068C7.92608 2.9068 0 10.7153 0 20.346C0 22.4312 0.371614 24.432 1.05438 26.2839C1.72958 28.121 2.70963 29.813 3.93407 31.304L8.96912 28.2587L14.7751 24.7471V38.1065H20.4891V24.6391L26.4589 28.25L31.4927 31.2953C32.7159 29.8043 33.6947 28.1111 34.3686 26.2728L29.224 23.1605L23.3109 19.5844L17.7216 16.2042L17.709 16.2117L12.1322 19.5844L6.19776 23.1729C5.97227 22.2749 5.8526 21.3384 5.8526 20.3721C5.8526 13.9243 11.161 8.69837 17.7077 8.69837L17.709 8.69713ZM17.709 22.9571L17.7203 22.9633L17.709 22.9708V22.9559V22.9571Z" fill="#FF0083"/>
</svg>
