<svg width="81" height="81" viewBox="0 0 81 81" fill="none" xmlns="http://www.w3.org/2000/svg">
<g id="walletconnect">
<g id="Group">
<path id="Vector" d="M40.75 1C62.5676 1 80.25 18.6824 80.25 40.5C80.25 62.3176 62.5676 80 40.75 80C18.9324 80 1.25 62.3176 1.25 40.5C1.25 18.6824 18.9324 1 40.75 1Z" fill="url(#paint0_linear_11_876)" stroke="url(#paint1_linear_11_876)"/>
<path id="Vector_2" d="M26.1724 31.3945C34.2192 23.5352 47.2817 23.5352 55.3286 31.3945L56.2973 32.3476C56.7036 32.7383 56.7036 33.3789 56.2973 33.7695L52.9848 37.0039C52.7817 37.207 52.4536 37.207 52.2505 37.0039L50.9223 35.707C45.2973 30.2226 36.2036 30.2226 30.5786 35.707L29.1567 37.0976C28.9536 37.3008 28.6255 37.3008 28.4224 37.0976L25.1099 33.8633C24.7036 33.4726 24.7036 32.832 25.1099 32.4414L26.1724 31.3945ZM62.188 38.082L65.1411 40.957C65.5473 41.3476 65.5473 41.9882 65.1411 42.3789L51.8442 55.3632C51.438 55.7538 50.7817 55.7538 50.3911 55.3632L40.9536 46.1445C40.8598 46.0507 40.688 46.0507 40.5942 46.1445L31.1567 55.3632C30.7505 55.7538 30.0942 55.7538 29.7036 55.3632L16.3599 42.3789C15.9536 41.9882 15.9536 41.3476 16.3599 40.957L19.313 38.082C19.7192 37.6914 20.3755 37.6914 20.7661 38.082L30.2036 47.3007C30.2974 47.3945 30.4692 47.3945 30.563 47.3007L40.0005 38.082C40.4067 37.6914 41.063 37.6914 41.4536 38.082L50.8911 47.3007C50.9848 47.3945 51.1567 47.3945 51.2505 47.3007L60.688 38.082C61.1255 37.6914 61.7817 37.6914 62.188 38.082Z" fill="#0270FF"/>
</g>
</g>
<defs>
<linearGradient id="paint0_linear_11_876" x1="40.75" y1="0.5" x2="40.75" y2="80.5" gradientUnits="userSpaceOnUse">
<stop stop-color="#131313"/>
<stop offset="1" stop-color="#131313"/>
</linearGradient>
<linearGradient id="paint1_linear_11_876" x1="40.75" y1="0.5" x2="40.75" y2="80.5" gradientUnits="userSpaceOnUse">
<stop stop-color="#2C2C2C"/>
<stop offset="1" stop-color="#2C2C2C" stop-opacity="0"/>
</linearGradient>
</defs>
</svg>
