<svg width="1440" height="788" viewBox="0 0 1440 788" fill="none" xmlns="http://www.w3.org/2000/svg">
<path opacity="0.3" d="M1534.57 311.391C1326.39 311.391 1265.31 389.203 1181.73 389.203C1098.15 389.203 914.991 141.391 660.709 95.7136C406.426 50.0365 303.295 368.891 201.04 378.188C98.7854 387.484 188.584 270.792 -95.6497 1M-95.6223 14.2552C188.611 284.047 98.8128 400.766 201.068 391.443C303.323 382.146 406.454 63.2917 660.736 108.969C915.018 154.646 1098.17 402.432 1181.76 402.432C1265.34 402.432 1326.42 324.62 1534.6 324.62M-95.6223 27.4844C188.611 297.276 98.8128 413.995 201.068 404.672C303.323 395.375 406.454 76.5208 660.736 122.198C915.018 167.875 1098.17 415.661 1181.76 415.661C1265.34 415.661 1326.42 337.849 1534.6 337.849M-95.6223 40.7396C188.611 310.531 98.8128 427.25 201.068 417.927C303.323 408.63 406.454 89.776 660.736 135.453C915.018 181.13 1098.17 428.917 1181.76 428.917C1265.34 428.917 1326.42 351.104 1534.6 351.104M-95.6223 53.9948C188.611 323.786 98.8128 440.505 201.068 431.182C303.323 421.885 406.454 103.031 660.736 148.708C915.018 194.385 1098.15 442.172 1181.73 442.172C1265.31 442.172 1326.39 364.359 1534.57 364.359M-95.6223 67.224C188.611 337.016 98.8128 453.734 201.068 444.411C303.323 435.115 406.454 116.26 660.736 161.938C915.018 207.615 1098.17 455.401 1181.76 455.401C1265.34 455.401 1326.42 377.589 1534.6 377.589M-95.6223 80.4792C188.611 350.271 98.8128 466.99 201.068 457.667C303.323 448.344 406.454 129.516 660.736 175.193C915.018 220.87 1098.17 468.656 1181.76 468.656C1265.34 468.656 1326.42 390.844 1534.6 390.844M-95.6223 93.7083C188.611 363.5 98.8128 480.219 201.068 470.896C303.323 461.599 406.454 142.745 660.736 188.422C915.018 234.099 1098.17 481.885 1181.76 481.885C1265.34 481.885 1326.42 404.073 1534.6 404.073M-95.6223 106.964C188.584 376.755 98.7854 493.474 201.04 484.151C303.295 474.854 406.426 156 660.709 201.677C914.991 247.354 1098.15 495.141 1181.73 495.141C1265.31 495.141 1326.39 417.328 1534.57 417.328M-95.6223 120.219C188.611 390.01 98.8128 506.729 201.068 497.406C303.323 488.109 406.454 169.255 660.736 214.932C915.018 260.609 1098.17 508.396 1181.76 508.396C1265.34 508.396 1326.42 430.583 1534.6 430.583M-95.6223 133.448C188.584 403.24 98.7854 519.958 201.04 510.661C303.295 501.365 406.426 182.51 660.709 228.188C914.991 273.865 1098.15 521.651 1181.73 521.651C1265.31 521.651 1326.39 443.839 1534.57 443.839M-95.6223 146.703C188.611 416.495 98.8128 533.214 201.068 523.891C303.323 514.594 406.454 195.74 660.736 241.417C915.018 287.094 1098.15 534.88 1181.73 534.88C1265.31 534.88 1326.39 457.068 1534.57 457.068M-95.6223 159.932C188.611 429.724 98.8128 546.443 201.068 537.12C303.323 527.823 406.454 208.969 660.736 254.646C915.018 300.323 1098.17 548.109 1181.76 548.109C1265.34 548.109 1326.42 470.297 1534.6 470.297M-95.6223 173.187C188.611 442.979 98.8128 559.698 201.068 550.375C303.323 541.078 406.454 222.224 660.736 267.901C915.018 313.578 1098.17 561.365 1181.76 561.365C1265.34 561.365 1326.39 483.578 1534.57 483.578M-95.6223 186.443C188.611 456.234 98.8128 572.953 201.068 563.63C303.323 554.333 406.454 235.479 660.736 281.156C915.018 326.833 1098.17 574.62 1181.76 574.62C1265.34 574.62 1326.42 496.807 1534.6 496.807M-95.6223 199.672C188.584 469.464 98.7854 586.182 201.04 576.885C303.295 567.589 406.426 248.734 660.709 294.411C914.991 340.089 1098.15 587.875 1181.73 587.875C1265.31 587.875 1326.39 510.063 1534.57 510.063M-95.6223 212.927C188.611 482.719 98.8128 599.438 201.068 590.115C303.323 580.792 406.454 261.964 660.736 307.641C915.018 353.318 1098.17 601.104 1181.76 601.104C1265.34 601.104 1326.42 523.292 1534.6 523.292M-95.6223 226.156C188.584 495.948 98.7854 612.667 201.04 603.37C303.295 594.073 406.426 275.219 660.709 320.896C914.991 366.573 1098.15 614.359 1181.73 614.359C1265.31 614.359 1326.39 536.547 1534.57 536.547M-95.6223 239.411C188.611 509.203 98.8128 625.922 201.068 616.599C303.323 607.302 406.454 288.448 660.736 334.125C915.018 379.802 1098.17 627.589 1181.76 627.589C1265.34 627.589 1326.42 549.776 1534.6 549.776M-95.6223 252.667C188.611 522.458 98.8128 639.177 201.068 629.854C303.323 620.531 406.454 301.703 660.736 347.38C915.018 393.057 1098.17 640.844 1181.76 640.844C1265.34 640.844 1326.42 563.031 1534.6 563.031M-95.6223 265.896C188.611 535.688 98.8128 652.406 201.068 643.083C303.323 633.76 406.454 314.932 660.736 360.609C915.018 406.286 1098.17 654.073 1181.76 654.073C1265.34 654.073 1326.39 576.286 1534.57 576.286M-95.6223 279.151C188.584 548.943 98.7854 665.635 201.04 656.339C303.295 647.042 406.426 328.187 660.709 373.865C914.991 419.542 1098.15 667.328 1181.73 667.328C1265.31 667.328 1326.39 589.516 1534.57 589.516M-95.6223 292.406C188.584 562.172 98.7854 678.891 201.04 669.594C303.295 660.297 406.426 341.443 660.709 387.12C914.991 432.797 1098.15 680.583 1181.73 680.583C1265.31 680.583 1326.39 602.771 1534.57 602.771M-95.6223 305.635C188.611 575.427 98.8128 692.146 201.068 682.823C303.323 673.5 406.454 354.672 660.736 400.349C915.018 446.026 1098.17 693.813 1181.76 693.813C1265.34 693.813 1326.42 616 1534.6 616M-95.6223 318.891C188.584 588.682 98.7854 705.375 201.04 696.078C303.295 686.781 406.426 367.927 660.709 413.604C914.991 459.281 1098.15 707.068 1181.73 707.068C1265.31 707.068 1326.39 629.255 1534.57 629.255M-95.6223 332.12C188.611 601.911 98.8128 718.63 201.068 709.307C303.323 699.984 406.454 381.156 660.736 426.833C915.018 472.51 1098.17 720.297 1181.76 720.297C1265.34 720.297 1326.42 642.484 1534.6 642.484M-95.6223 345.375C188.611 615.167 98.8128 731.885 201.068 722.562C303.323 713.266 406.454 394.411 660.736 440.089C915.018 485.766 1098.15 733.578 1181.73 733.578C1265.31 733.578 1326.39 655.766 1534.57 655.766M-95.6223 358.63C188.611 628.422 98.8128 745.141 201.068 735.818C303.323 726.495 406.454 407.667 660.736 453.344C915.018 499.021 1098.17 746.807 1181.76 746.807C1265.34 746.807 1326.39 668.995 1534.57 668.995M-95.6223 371.859C188.584 641.651 98.7854 758.37 201.04 749.073C303.295 739.776 406.426 420.922 660.709 466.599C914.991 512.276 1098.15 760.063 1181.73 760.063C1265.31 760.063 1326.39 682.25 1534.57 682.25M-95.6223 385.115C188.584 654.906 98.7854 771.599 201.04 762.302C303.295 753.005 406.426 434.151 660.709 479.828C914.991 525.505 1098.15 773.292 1181.73 773.292C1265.31 773.292 1326.39 695.479 1534.57 695.479M-95.6223 398.344C188.611 668.135 98.8128 784.854 201.068 775.531C303.323 766.234 406.454 447.38 660.736 493.057C915.018 538.734 1098.17 786.521 1181.76 786.521C1265.34 786.521 1326.42 708.708 1534.6 708.708M-95.6223 411.599C188.584 681.391 98.7854 798.109 201.04 788.787C303.295 779.464 406.426 460.635 660.709 506.312C914.991 551.99 1098.15 799.776 1181.73 799.776C1265.31 799.776 1326.39 721.964 1534.57 721.964M-95.6223 424.854C188.611 694.646 98.8128 811.365 201.068 802.042C303.323 792.719 406.454 473.891 660.736 519.568C915.018 565.245 1098.17 813.031 1181.76 813.031C1265.34 813.031 1326.42 735.219 1534.6 735.219M-95.6223 438.083C188.611 707.875 98.8128 824.594 201.068 815.271C303.323 805.974 406.454 487.12 660.736 532.797C915.018 578.474 1098.15 826.286 1181.73 826.286C1265.31 826.286 1326.39 748.474 1534.57 748.474M-95.6223 451.339C188.611 721.13 98.8128 837.849 201.068 828.526C303.323 819.203 406.454 500.375 660.736 546.052C915.018 591.729 1098.17 839.516 1181.76 839.516C1265.34 839.516 1326.42 761.703 1534.6 761.703M-95.6223 464.594C188.584 734.359 98.7854 851.078 201.04 841.781C303.295 832.484 406.426 513.63 660.709 559.307C914.991 604.984 1098.15 852.771 1181.73 852.771C1265.31 852.771 1326.39 774.958 1534.57 774.958M-95.6223 477.823C188.611 747.615 98.8128 864.333 201.068 855.01C303.323 845.688 406.454 526.859 660.736 572.536C915.018 618.214 1098.17 866 1181.76 866C1265.34 866 1326.42 788.188 1534.6 788.188" stroke="#FF0083" stroke-width="0.5" stroke-miterlimit="10"/>
</svg>
