<svg width="26" height="27" viewBox="0 0 26 27" fill="none" xmlns="http://www.w3.org/2000/svg">
<path d="M13.0001 25.1459C6.57592 25.1459 1.35425 19.9242 1.35425 13.5001C1.35425 7.07592 6.57592 1.85425 13.0001 1.85425C19.4242 1.85425 24.6459 7.07592 24.6459 13.5001C24.6459 19.9242 19.4242 25.1459 13.0001 25.1459ZM13.0001 3.47925C7.47508 3.47925 2.97925 7.97508 2.97925 13.5001C2.97925 19.0251 7.47508 23.5209 13.0001 23.5209C18.5251 23.5209 23.0209 19.0251 23.0209 13.5001C23.0209 7.97508 18.5251 3.47925 13.0001 3.47925Z" fill="#171717"/>
<path d="M9.93406 17.3782C9.72823 17.3782 9.52239 17.3024 9.35989 17.1399C9.04573 16.8257 9.04573 16.3057 9.35989 15.9916L15.4916 9.85989C15.8057 9.54573 16.3257 9.54573 16.6399 9.85989C16.9541 10.1741 16.9541 10.6941 16.6399 11.0082L10.5082 17.1399C10.3566 17.3024 10.1399 17.3782 9.93406 17.3782Z" fill="white"/>
<path d="M16.0657 17.3782C15.8599 17.3782 15.6541 17.3024 15.4916 17.1399L9.35989 11.0082C9.04573 10.6941 9.04573 10.1741 9.35989 9.85989C9.67406 9.54573 10.1941 9.54573 10.5082 9.85989L16.6399 15.9916C16.9541 16.3057 16.9541 16.8257 16.6399 17.1399C16.4774 17.3024 16.2716 17.3782 16.0657 17.3782Z" fill="white"/>
</svg>
